<?xml version="1.0" encoding="UTF-8" standalone="no"?>
<svg
   xmlns:dc="http://purl.org/dc/elements/1.1/"
   xmlns:cc="http://creativecommons.org/ns#"
   xmlns:rdf="http://www.w3.org/1999/02/22-rdf-syntax-ns#"
   xmlns:svg="http://www.w3.org/2000/svg"
   xmlns="http://www.w3.org/2000/svg"
   xmlns:sodipodi="http://sodipodi.sourceforge.net/DTD/sodipodi-0.dtd"
   xmlns:inkscape="http://www.inkscape.org/namespaces/inkscape"
   inkscape:export-ydpi="299.85001"
   inkscape:export-xdpi="299.85001"
   inkscape:export-filename="/Users/S.Carl/Documents/Analytics/ggpath/man/figures/social_card.png"
   sodipodi:docname="social_card.svg"
   inkscape:version="1.0 (4035a4f, 2020-05-01)"
   id="svg8"
   version="1.1"
   viewBox="0 0 338.66666 169.33334"
   height="640"
   width="1280">
  <defs
     id="defs2">
    <inkscape:path-effect
       effect="fillet_chamfer"
       id="path-effect850"
       is_visible="true"
       lpeversion="1"
       satellites_param="F,0,0,1,0,16.933333,0,1 @ F,0,0,1,0,16.933333,0,1 @ F,0,0,1,0,16.933333,0,1 @ F,0,0,1,0,16.933333,0,1"
       unit="px"
       method="auto"
       mode="F"
       radius="64"
       chamfer_steps="1"
       flexible="false"
       use_knot_distance="true"
       apply_no_radius="true"
       apply_with_radius="true"
       only_selected="false"
       hide_knots="false" />
    <inkscape:path-effect
       hide_knots="false"
       only_selected="false"
       apply_with_radius="true"
       apply_no_radius="true"
       use_knot_distance="true"
       flexible="false"
       chamfer_steps="1"
       radius="10"
       mode="F"
       method="auto"
       unit="px"
       satellites_param="F,0,0,1,0,0,0,1 @ F,0,0,1,0,10,0,1 @ F,0,0,1,0,0,0,1"
       lpeversion="1"
       is_visible="true"
       id="path-effect5485"
       effect="fillet_chamfer" />
    <inkscape:path-effect
       effect="fillet_chamfer"
       id="path-effect5504"
       is_visible="true"
       lpeversion="1"
       satellites_param="F,0,0,1,0,0,0,1 @ F,0,0,1,0,10,0,1 @ F,0,0,1,0,0,0,1"
       unit="px"
       method="auto"
       mode="F"
       radius="10"
       chamfer_steps="1"
       flexible="false"
       use_knot_distance="true"
       apply_no_radius="true"
       apply_with_radius="true"
       only_selected="false"
       hide_knots="false" />
  </defs>
  <sodipodi:namedview
     inkscape:snap-page="true"
     inkscape:snap-grids="true"
     inkscape:window-maximized="0"
     inkscape:window-y="36"
     inkscape:window-x="0"
     inkscape:window-height="920"
     inkscape:window-width="1470"
     units="px"
     showgrid="false"
     inkscape:document-rotation="0"
     inkscape:current-layer="layer2"
     inkscape:document-units="mm"
     inkscape:cy="283.94562"
     inkscape:cx="519.84198"
     inkscape:zoom="0.50260931"
     inkscape:pageshadow="2"
     inkscape:pageopacity="0"
     borderopacity="1.0"
     bordercolor="#666666"
     pagecolor="#ffffff"
     id="base" />
  <metadata
     id="metadata5">
    <rdf:RDF>
      <cc:Work
         rdf:about="">
        <dc:format>image/svg+xml</dc:format>
        <dc:type
           rdf:resource="http://purl.org/dc/dcmitype/StillImage" />
        <dc:title></dc:title>
      </cc:Work>
    </rdf:RDF>
  </metadata>
  <g
     inkscape:label="Ebene 2"
     id="layer2"
     inkscape:groupmode="layer">
    <path
       y="0.55108523"
       x="0.45210209"
       height="168.36859"
       width="337.7793"
       id="rect1572"
       style="display:inline;fill:#222222;fill-opacity:1;stroke:#f5f5f5;stroke-width:0.925105;stroke-linecap:round;stroke-linejoin:round;stroke-miterlimit:10;stroke-dasharray:none"
       inkscape:path-effect="#path-effect850"
       d="M 17.385435,0.55108523 H 321.29807 A 16.933333,16.933333 45 0 1 338.2314,17.484418 V 151.98634 a 16.933333,16.933333 135 0 1 -16.93333,16.93334 H 17.385435 A 16.933333,16.933333 45 0 1 0.45210209,151.98634 V 17.484418 A 16.933333,16.933333 135 0 1 17.385435,0.55108523 Z"
       sodipodi:type="rect" />
  </g>
  <g
     style="display:inline"
     id="layer1"
     inkscape:groupmode="layer"
     inkscape:label="Ebene 1">
    <g
       transform="matrix(1.9745189,0,0,1.9745189,46.478763,-61.468408)"
       id="g1533">
      <path
         id="path1010"
         d="m 35.994115,38.314722 c 0,-0.81525 -0.658657,-1.473899 -1.473903,-1.473899 H 16.83327 c -0.81525,0 -1.473905,0.658649 -1.473905,1.473899 0,0.815258 0.658655,1.473907 1.473905,1.473907 h 17.686942 c 0.815246,0 1.473903,-0.658649 1.473903,-1.473907 z m 0,11.791284 c 0,-0.815247 -0.658657,-1.473894 -1.473903,-1.473894 H 16.83327 c -0.81525,0 -1.473905,0.658647 -1.473905,1.473894 0,0.815247 0.658655,1.473904 1.473905,1.473904 h 17.686942 c 0.815246,0 1.473903,-0.658657 1.473903,-1.473904 z m -20.63475,-5.895624 c 0,0.815259 0.658655,1.47391 1.473905,1.47391 h 17.686942 c 0.815246,0 1.473903,-0.658651 1.473903,-1.47391 0,-0.81525 -0.658657,-1.473899 -1.473903,-1.473899 H 16.83327 c -0.81525,0 -1.473905,0.658649 -1.473905,1.473899 z m 20.63475,11.791289 c 0,-0.815257 -0.658657,-1.473904 -1.473903,-1.473904 H 16.83327 c -0.81525,0 -1.473905,0.658647 -1.473905,1.473904 0,0.815247 0.658655,1.473904 1.473905,1.473904 h 17.686942 c 0.815246,0 1.473903,-0.658657 1.473903,-1.473904 z"
         style="fill:#f5f5f5;fill-opacity:1;stroke:none;stroke-width:0.0460593" />
      <path
         id="path2223"
         d="m 91.170586,91.836058 c -1.424477,0 -2.579209,1.154732 -2.579209,2.579206 0,1.424474 1.154732,2.57921 2.579209,2.57921 1.424474,0 2.579207,-1.154736 2.579207,-2.57921 0,-1.424474 -1.15527,-2.579206 -2.579207,-2.579206 z M 107.02734,87.10751 H 86.393678 c -1.85112,0 -3.391075,1.539463 -3.391075,3.438945 v 17.194715 c 0,1.89948 1.539466,3.43895 3.390586,3.43895 h 20.633661 c 1.89948,0 3.43895,-1.53947 3.43895,-3.43895 V 90.546455 c 3.5e-4,-1.899482 -1.4933,-3.438945 -3.43846,-3.438945 z m 0.85974,20.27365 -7.35075,-9.989061 c -0.13433,-0.247174 -0.44061,-0.397625 -0.768387,-0.397625 -0.328471,0 -0.635127,0.148732 -0.817284,0.396497 l -5.727992,7.742999 -1.992975,-2.47711 c -0.184898,-0.22993 -0.480054,-0.36588 -0.793645,-0.36588 -0.31391,0 -0.608799,0.13589 -0.794179,0.36588 l -4.057953,5.04074 c 0,-10e-4 0,0.001 0,0 l -0.0021,-17.151145 c 0,-0.474038 0.385697,-0.859738 0.859734,-0.859738 h 20.633661 c 0.47404,0 0.85974,0.3857 0.85974,0.859738 v 16.834705 z"
         style="fill:#f5f5f5;fill-opacity:1;stroke:none;stroke-width:0.0537336" />
      <text
         xml:space="preserve"
         style="font-style:normal;font-variant:normal;font-weight:normal;font-stretch:normal;font-size:30px;line-height:1.25;font-family:Kanit;-inkscape-font-specification:'Kanit, Normal';font-variant-ligatures:normal;font-variant-caps:normal;font-variant-numeric:normal;font-variant-east-asian:normal;white-space:pre;fill:none;fill-opacity:1;stroke:#f5f5f5;stroke-width:0.75;stroke-opacity:1"
         x="13.417381"
         y="78.870003"
         id="text2811"><tspan
           sodipodi:role="line"
           id="tspan2809"
           x="13.417381"
           y="78.870003"
           style="font-style:normal;font-variant:normal;font-weight:normal;font-stretch:normal;font-size:30px;font-family:Kanit;-inkscape-font-specification:'Kanit, Normal';font-variant-ligatures:normal;font-variant-caps:normal;font-variant-numeric:normal;font-variant-east-asian:normal;fill:none;stroke:#f5f5f5;stroke-width:0.75;stroke-opacity:1">ggpath</tspan></text>
      <path
         style="fill:none;stroke:#f5f5f5;stroke-width:1.65;stroke-linecap:round;stroke-linejoin:round;stroke-miterlimit:10;stroke-dasharray:none;stroke-opacity:1"
         d="m 38.653618,47.065286 h 41.67168 a 10,10 45 0 1 10,10 v 0.214169"
         id="path5483"
         inkscape:path-effect="#path-effect5485"
         inkscape:original-d="m 38.653618,47.065286 h 51.67168 v 10.214169" />
      <path
         inkscape:original-d="M 80.511682,99.93863 H 49.268342 V 88.723072"
         inkscape:path-effect="#path-effect5504"
         id="path5483-2"
         d="m 80.511682,99.93863 h -21.24334 a 10,10 45 0 1 -10,-10 v -1.215558"
         style="fill:none;stroke:#f5f5f5;stroke-width:1.65;stroke-linecap:round;stroke-linejoin:round;stroke-miterlimit:10;stroke-dasharray:none;stroke-opacity:1" />
    </g>
    <text
       id="text1576"
       y="118.25893"
       x="74.546532"
       style="font-style:normal;font-variant:normal;font-weight:normal;font-stretch:normal;font-size:9.17222px;line-height:1.25;font-family:Kanit;-inkscape-font-specification:'Kanit, Normal';font-variant-ligatures:normal;font-variant-caps:normal;font-variant-numeric:normal;font-variant-east-asian:normal;fill:#ffffff;fill-opacity:1;stroke:none;stroke-width:0.264583"
       xml:space="preserve"><tspan
         style="font-style:normal;font-variant:normal;font-weight:normal;font-stretch:normal;font-size:9.17222px;font-family:Kanit;-inkscape-font-specification:'Kanit, Normal';font-variant-ligatures:normal;font-variant-caps:normal;font-variant-numeric:normal;font-variant-east-asian:normal;fill:#ffffff;fill-opacity:1;stroke-width:0.264583"
         y="118.25893"
         x="74.546532"
         id="tspan1574"
         sodipodi:role="line">by @mrcaseb</tspan></text>
  </g>
</svg>
